<svg width="19" height="19" viewBox="0 0 19 19" fill="none" xmlns="http://www.w3.org/2000/svg">
<path d="M9.00955 4.38998C6.45408 4.38775 4.38988 6.44834 4.38765 9.00382C4.38542 11.5593 6.44602 13.6235 9.00149 13.6257C11.557 13.6279 13.6212 11.5673 13.6234 9.01188C13.6256 6.4564 11.565 4.39221 9.00955 4.38998ZM9.0029 12.0091C7.35029 12.0077 6.00281 10.6578 6.00425 9.00523C6.00569 7.35262 7.35553 6.00513 9.00814 6.00657C10.6607 6.00801 12.0082 7.35786 12.0068 9.01046C12.0054 10.6631 10.6555 12.0106 9.0029 12.0091ZM13.8177 3.12882C13.221 3.1283 12.7388 3.60971 12.7382 4.20636C12.7377 4.803 13.2191 5.28525 13.8158 5.28577C14.4124 5.28629 14.8947 4.80715 14.8952 4.20824C14.8955 4.06655 14.8678 3.92622 14.8138 3.79524C14.7598 3.66427 14.6805 3.54524 14.5804 3.44496C14.4803 3.34469 14.3614 3.26516 14.2305 3.21091C14.0996 3.15666 13.9593 3.12876 13.8177 3.12882ZM18.0072 9.0157C18.0083 7.77286 18.0206 6.5413 17.9518 5.30064C17.8833 3.85961 17.5556 2.58045 16.5029 1.52583C15.4478 0.46894 14.1715 0.141356 12.7306 0.0703018C11.4878 -0.000579577 10.2562 0.00960364 9.01562 0.00852134C7.77278 0.00743708 6.54122 -0.00489499 5.30057 0.0638198C3.85953 0.13236 2.58038 0.459966 1.52575 1.51276C0.468862 2.5678 0.141278 3.84413 0.0702235 5.28504C-0.000657856 6.52782 0.00952536 7.75941 0.00844307 9C0.00736077 10.2406 -0.00497327 11.4744 0.0637416 12.7151C0.132282 14.1561 0.459887 15.4352 1.51269 16.4899C2.56772 17.5467 3.84405 17.8743 5.28497 17.9454C6.52775 18.0163 7.75933 18.0062 8.99992 18.0072C10.2428 18.0083 11.4743 18.0207 12.715 17.9518C14.156 17.8833 15.4352 17.5557 16.4898 16.503C17.5468 15.4479 17.8743 14.1716 17.9453 12.7307C18.0185 11.4901 18.0061 10.2585 18.0072 9.0157ZM16.0212 14.3231C15.8564 14.7327 15.658 15.0387 15.3403 15.3537C15.0225 15.6708 14.7184 15.8687 14.3085 16.0328C13.1238 16.5023 10.3117 16.3939 8.99908 16.3928C7.68644 16.3916 4.87195 16.4951 3.68806 16.0258C3.27842 15.861 2.97238 15.6626 2.65745 15.3449C2.34027 15.0271 2.1424 14.723 1.9784 14.3131C1.51112 13.1261 1.61938 10.314 1.62053 9.0014C1.62167 7.68877 1.51832 4.87427 1.98767 3.69039C2.15238 3.28075 2.35078 2.97472 2.66852 2.65978C2.98627 2.34484 3.29039 2.14472 3.70031 1.98073C4.88502 1.51344 7.69933 1.62171 9.01196 1.62285C10.3246 1.624 13.1391 1.52064 14.323 1.98999C14.7326 2.15471 15.0386 2.35311 15.3537 2.67084C15.6708 2.98859 15.8687 3.29271 16.0327 3.70264C16.5 4.88734 16.3916 7.70165 16.3905 9.01429C16.3893 10.3269 16.4928 13.1392 16.0212 14.3231Z" fill="white"/>
</svg>
