<svg width="18" height="18" viewBox="0 0 18 18" fill="none" xmlns="http://www.w3.org/2000/svg">
<path fill-rule="evenodd" clip-rule="evenodd" d="M4.44663 2.16705C4.44663 3.36389 3.48708 4.3341 2.30339 4.3341C1.11972 4.3341 0.160156 3.36389 0.160156 2.16705C0.160156 0.970221 1.11972 0 2.30339 0C3.48708 0 4.44663 0.970221 4.44663 2.16705ZM6.46759 17.999V5.97615H10.0116V7.62027H10.0615C10.5542 6.6764 11.7591 5.67903 13.5565 5.67903C17.3004 5.67903 17.9899 8.16797 17.9899 11.4067V17.9999H14.2961V12.1524C14.2961 10.7589 14.2726 8.96526 12.3752 8.96526C10.4514 8.96526 10.1595 10.4846 10.1595 12.0534V17.999H6.46759ZM4.14901 5.97615H0.451241V17.999H4.14901V5.97615Z" fill="white"/>
</svg>
