<svg width="24" height="22" viewBox="0 0 24 22" fill="none" xmlns="http://www.w3.org/2000/svg">
<path d="M23.6405 10.2522L11.3213 0.120505C11.2268 0.0432582 11.1061 0 10.979 0H8.09319C7.8519 0 7.74103 0.28427 7.92363 0.432584L19.3428 9.82584H0.26086C0.117387 9.82584 0 9.93708 0 10.073V11.927C0 12.0629 0.117387 12.1742 0.26086 12.1742H19.3395L7.92037 21.5674C7.73777 21.7188 7.84863 22 8.08993 22H11.0735C11.1355 22 11.1974 21.9784 11.2431 21.9382L23.6405 11.7478C23.7533 11.6547 23.8439 11.5399 23.9059 11.4109C23.9679 11.2819 24 11.1418 24 11C24 10.8582 23.9679 10.7181 23.9059 10.5891C23.8439 10.4601 23.7533 10.3453 23.6405 10.2522Z" fill="white"/>
</svg>
